<?xml version="1.0" encoding="utf-8"?>
<!-- Generator: Adobe Illustrator 15.1.0, SVG Export Plug-In . SVG Version: 6.00 Build 0)  -->
<!DOCTYPE svg PUBLIC "-//W3C//DTD SVG 1.1//EN" "http://www.w3.org/Graphics/SVG/1.1/DTD/svg11.dtd">
<svg version="1.1" xmlns="http://www.w3.org/2000/svg" xmlns:xlink="http://www.w3.org/1999/xlink" x="0px" y="0px"
	 width="150.687px" height="91.543px" viewBox="0 0 150.687 91.543" enable-background="new 0 0 150.687 91.543"
	 xml:space="preserve">
<g id="BoundingBox">
	<rect x="-91.313" fill="none" width="242" height="177"/>
</g>
<g id="Logo">
	<polygon fill="#006BB6" points="3.448,84.972 2.748,84.972 2.182,84.972 2.182,91.543 3.448,91.543 	"/>
	<path fill="#006BB6" d="M10.706,84.972H9.479v2.045c0,0.808,0.018,1.977,0.068,2.637c-0.243-0.496-0.508-1.041-0.808-1.547
		l-1.831-3.135H5.262v6.571h1.227v-2.346c0-0.789-0.019-1.821-0.056-2.385c0.192,0.429,0.418,0.915,0.709,1.411l1.928,3.32h1.637
		V84.972z"/>
	<polygon fill="#006BB6" points="18.549,84.972 13.875,84.972 13.875,86.053 15.58,86.053 15.58,91.543 16.846,91.543 
		16.846,86.053 18.549,86.053 	"/>
	<polygon fill="#006BB6" points="24.864,84.972 23.6,84.972 23.6,87.6 20.813,87.6 20.813,84.972 19.548,84.972 19.548,91.543 
		20.813,91.543 20.813,88.692 23.6,88.692 23.6,91.543 24.864,91.543 	"/>
	<polygon fill="#006BB6" points="30.263,90.463 27.955,90.463 27.955,88.682 30.146,88.682 30.146,87.65 27.955,87.65 
		27.955,86.034 30.263,86.034 30.263,84.972 26.688,84.972 26.688,91.543 30.263,91.543 	"/>
	<polygon fill="#006BB6" points="49.76,90.434 47.629,90.434 47.629,84.972 46.362,84.972 46.362,91.543 49.76,91.543 	"/>
	<path fill="#006BB6" d="M57.381,84.972h-1.472l-1.128,3.397c-0.167,0.485-0.273,0.857-0.37,1.363h-0.02
		c-0.088-0.467-0.205-0.915-0.36-1.382l-1.1-3.378h-1.48l-1.011,6.571h1.284l0.37-3.028c0.077-0.574,0.146-1.09,0.184-1.674h0.021
		c0.078,0.526,0.242,1.12,0.418,1.654l1.004,3.047h1.256l1.041-3.299c0.167-0.517,0.272-0.983,0.359-1.402h0.021
		c0.047,0.458,0.105,0.945,0.203,1.567l0.466,3.134h1.335L57.381,84.972z"/>
	<path fill-rule="evenodd" clip-rule="evenodd" fill="#006BB6" d="M72.453,88.167c0-2.25-1.236-3.302-2.988-3.302
		c-1.763,0-3.212,1.306-3.212,3.476c0,2.037,0.983,3.31,2.987,3.31C71.022,91.65,72.453,90.338,72.453,88.167z M71.1,88.263
		c0,1.577-0.914,2.239-1.771,2.239c-1.178,0-1.723-0.906-1.723-2.298c0-1.479,0.836-2.199,1.742-2.199
		C70.477,86.004,71.1,86.803,71.1,88.263z"/>
	<path fill="#006BB6" d="M86.609,90.377h-1.421c-0.808,0-1.255,0-1.421,0.018c0.115-0.154,0.205-0.303,0.302-0.459l2.502-3.951
		v-1.013h-4.244v1.139h1.518c0.653,0,0.964-0.009,1.197-0.02c-0.155,0.205-0.291,0.399-0.428,0.623l-2.366,3.856v0.973h4.361V90.377
		z"/>
	<path fill-rule="evenodd" clip-rule="evenodd" fill="#006BB6" d="M93.439,84.972h-1.432l-2.297,6.571h1.275l0.457-1.342h2.483
		l0.457,1.342h1.402L93.439,84.972z M91.766,89.197l0.593-1.674c0.128-0.38,0.233-0.76,0.312-1.1h0.011
		c0.077,0.369,0.175,0.691,0.302,1.051l0.613,1.723H91.766z"/>
	<path fill="#006BB6" d="M100.546,89.51c0-2.055-2.766-1.617-2.766-2.795c0-0.467,0.371-0.798,1.101-0.798
		c0.399,0,0.808,0.068,1.178,0.175l0.068-1.109c-0.39-0.067-0.817-0.117-1.187-0.117c-1.577,0-2.503,0.81-2.503,1.977
		c0,2.161,2.755,1.586,2.755,2.842c0,0.605-0.497,0.867-1.139,0.867c-0.477,0-1.003-0.107-1.372-0.234l-0.079,1.18
		c0.41,0.107,0.876,0.154,1.344,0.154C99.563,91.65,100.546,90.746,100.546,89.51z"/>
	<path fill="#006BB6" d="M118.483,90.209c-0.342,0.156-0.876,0.273-1.274,0.273c-1.324,0-1.92-0.799-1.92-2.23
		c0-1.274,0.605-2.199,1.832-2.199c0.447,0,0.895,0.068,1.322,0.194l0.137-1.149c-0.428-0.116-0.924-0.175-1.391-0.175
		c-2.2,0-3.29,1.461-3.29,3.545c0,1.635,0.739,3.165,3.035,3.165c0.614,0,1.207-0.119,1.695-0.295L118.483,90.209z"/>
	<path d="M7.548,79.026c-0.436,0.199-1.117,0.346-1.625,0.346c-1.686,0-2.441-1.016-2.441-2.838c0-1.623,0.768-2.801,2.33-2.801
		c0.57,0,1.141,0.088,1.686,0.248l0.174-1.463c-0.545-0.148-1.178-0.223-1.771-0.223c-2.803,0-4.191,1.859-4.191,4.512
		c0,2.082,0.943,4.029,3.869,4.029c0.779,0,1.535-0.15,2.156-0.373L7.548,79.026z"/>
	<path d="M67.502,78.133c0-2.615-3.52-2.059-3.52-3.559c0-0.594,0.471-1.016,1.4-1.016c0.508,0,1.027,0.087,1.5,0.223l0.086-1.412
		c-0.496-0.087-1.041-0.149-1.512-0.149c-2.008,0-3.186,1.029-3.186,2.517c0,2.752,3.508,2.021,3.508,3.619
		c0,0.77-0.633,1.104-1.451,1.104c-0.605,0-1.275-0.137-1.746-0.299l-0.1,1.502c0.52,0.137,1.115,0.197,1.711,0.197
		C66.25,80.86,67.502,79.708,67.502,78.133z"/>
	<polygon points="104.032,72.357 102.42,72.357 102.42,75.704 98.876,75.704 98.876,72.357 97.264,72.357 97.264,80.725 
		98.876,80.725 98.876,77.092 102.42,77.092 102.42,80.725 104.032,80.725 	"/>
	<polygon points="136.118,72.357 130.169,72.357 130.169,73.733 132.339,73.733 132.339,80.725 133.95,80.725 133.95,73.733 
		136.118,73.733 	"/>
	<path d="M8.737,59.707C8.019,59.496,7.2,59.347,6.37,59.347c-2.902,0-4.686,1.871-4.686,4.499c0,2.554,1.572,4.114,4.227,4.114
		c1.004,0,2.033-0.184,2.863-0.52V63.45H7.163v2.913c-0.322,0.1-0.67,0.148-1.066,0.148c-1.699,0-2.664-1.041-2.664-2.814
		c0-1.871,1.189-2.912,2.838-2.912c0.781,0,1.549,0.161,2.219,0.422L8.737,59.707z"/>
	<polygon points="15.132,66.462 12.194,66.462 12.194,64.193 14.983,64.193 14.983,62.879 12.194,62.879 12.194,60.822 
		15.132,60.822 15.132,59.471 10.583,59.471 10.583,67.837 15.132,67.837 	"/>
	<path fill-rule="evenodd" clip-rule="evenodd" d="M20.799,65.023c-0.211-0.285-0.449-0.607-0.684-0.916
		c1.266-0.199,2.133-1.092,2.133-2.33c0-1.711-1.189-2.355-3.038-2.355c-0.966,0-1.747,0.013-2.403,0.05v8.366h1.609v-3.459h0.063
		l2.332,3.459h1.996L20.799,65.023z M20.563,61.937c0,0.781-0.596,1.277-1.563,1.277c-0.247,0-0.47-0.012-0.583-0.025v-2.416
		c0.162-0.025,0.398-0.037,0.635-0.037C20.064,60.736,20.563,61.132,20.563,61.937z"/>
	<path d="M32.313,59.471h-1.873l-1.438,4.325c-0.211,0.619-0.346,1.092-0.471,1.736h-0.025c-0.111-0.596-0.26-1.166-0.457-1.762
		l-1.402-4.3h-1.883l-1.289,8.366h1.637l0.471-3.855c0.1-0.73,0.186-1.388,0.233-2.131h0.026c0.1,0.67,0.311,1.426,0.533,2.107
		l1.277,3.879h1.598l1.326-4.201c0.211-0.658,0.348-1.252,0.459-1.785h0.025c0.061,0.582,0.135,1.201,0.26,1.995l0.596,3.991h1.697
		L32.313,59.471z"/>
	<path fill-rule="evenodd" clip-rule="evenodd" d="M38.931,59.471h-1.822l-2.925,8.366h1.623l0.583-1.709h3.16l0.582,1.709h1.785
		L38.931,59.471z M36.799,64.851l0.756-2.133c0.161-0.482,0.298-0.967,0.397-1.4h0.012c0.1,0.471,0.223,0.881,0.385,1.338
		l0.779,2.195H36.799z"/>
	<path d="M49.84,59.471h-1.561v2.603c0,1.029,0.023,2.516,0.086,3.359c-0.311-0.633-0.645-1.326-1.029-1.971l-2.33-3.991h-2.095
		v8.366h1.562v-2.986c0-1.005-0.023-2.318-0.074-3.037c0.248,0.545,0.532,1.164,0.906,1.797l2.453,4.227h2.082V59.471z"/>
	<path fill-rule="evenodd" clip-rule="evenodd" fill="#006BB6" d="M24.172,33.964c0,0-12.949,3.484-12.949-6.506
		c0-10.231,12.949-6.543,12.949-6.543V33.964z M35.854,43.223H15.652c-0.078,0-15.787-0.635-15.651-16.26
		C0.166,8.318,24.179,11.997,24.179,11.997V0.881h11.675V43.223z"/>
	<circle fill="#006BB6" cx="142.305" cy="35.491" r="8.036"/>
	<polygon fill="#006BB6" points="118.29,35.064 131.993,35.064 131.993,43.22 99.946,43.22 114.657,20.196 101.001,20.196 
		101.001,11.665 131.987,11.665 	"/>
	<polygon fill="#006BB6" points="62.333,43.22 49.941,29.336 49.941,43.22 38.061,43.22 38.061,0.88 49.941,0.88 49.941,21.948 
		60.078,11.665 74.951,11.665 61.802,25.106 77.513,43.22 	"/>
	<path fill="#006BB6" d="M98.842,11.665c0,0.009-5.415,0.006-5.406-0.001c0,0,0.063-4.322,5.548-4.084V1.355
		c-17.277-4.907-17.808,10.31-17.808,10.31l-3.33,0.005c-0.011-0.011-8.255,8.525-8.255,8.525h11.253l0.003,23.025h12.216
		c0.021,0,0-23.022,0-23.022l5.779-0.002V11.665z"/>
	<polygon points="37.57,79.348 34.633,79.348 34.633,77.079 37.422,77.079 37.422,75.765 34.633,75.765 34.633,73.708 37.57,73.708 
		37.57,72.357 33.021,72.357 33.021,80.723 37.57,80.723 	"/>
	<polygon points="60.969,79.348 58.031,79.348 58.031,77.079 60.82,77.079 60.82,75.765 58.031,75.765 58.031,73.708 60.969,73.708 
		60.969,72.357 56.42,72.357 56.42,80.723 60.969,80.723 	"/>
	<polygon points="73.538,79.348 70.601,79.348 70.601,77.079 73.39,77.079 73.39,75.765 70.601,75.765 70.601,73.708 73.538,73.708 
		73.538,72.357 68.989,72.357 68.989,80.723 73.538,80.723 	"/>
	<polygon points="120.463,79.348 117.525,79.348 117.525,77.079 120.314,77.079 120.314,75.765 117.525,75.765 117.525,73.708 
		120.463,73.708 120.463,72.357 115.914,72.357 115.914,80.723 120.463,80.723 	"/>
	<polygon points="141.709,79.348 138.771,79.348 138.771,77.079 141.561,77.079 141.561,75.765 138.771,75.765 138.771,73.708 
		141.709,73.708 141.709,72.357 137.16,72.357 137.16,80.723 141.709,80.723 	"/>
	<path fill-rule="evenodd" clip-rule="evenodd" d="M43.236,77.909c-0.211-0.285-0.449-0.607-0.684-0.916
		c1.266-0.199,2.133-1.092,2.133-2.33c0-1.711-1.189-2.355-3.038-2.355c-0.966,0-1.747,0.013-2.403,0.05v8.366h1.609v-3.459h0.063
		l2.332,3.459h1.996L43.236,77.909z M43,74.823c0,0.781-0.596,1.277-1.563,1.277c-0.247,0-0.47-0.012-0.583-0.025v-2.416
		c0.162-0.025,0.398-0.037,0.635-0.037C42.502,73.622,43,74.018,43,74.823z"/>
	<path fill-rule="evenodd" clip-rule="evenodd" d="M53.188,77.911c-0.211-0.285-0.449-0.607-0.684-0.916
		c1.266-0.199,2.133-1.092,2.133-2.33c0-1.711-1.189-2.355-3.038-2.355c-0.966,0-1.747,0.013-2.403,0.05v8.366h1.609v-3.459h0.063
		l2.332,3.459h1.996L53.188,77.911z M52.951,74.825c0,0.781-0.596,1.277-1.563,1.277c-0.247,0-0.47-0.012-0.583-0.025v-2.416
		c0.162-0.025,0.398-0.037,0.635-0.037C52.453,73.624,52.951,74.02,52.951,74.825z"/>
	<path fill-rule="evenodd" clip-rule="evenodd" d="M87.004,77.909c-0.211-0.285-0.449-0.607-0.684-0.916
		c1.266-0.199,2.133-1.092,2.133-2.33c0-1.711-1.189-2.355-3.038-2.355c-0.966,0-1.747,0.013-2.403,0.05v8.366h1.609v-3.459h0.063
		l2.332,3.459h1.996L87.004,77.909z M86.768,74.823c0,0.781-0.596,1.277-1.563,1.277c-0.247,0-0.47-0.012-0.583-0.025v-2.416
		c0.162-0.025,0.398-0.037,0.635-0.037C86.27,73.622,86.768,74.018,86.768,74.823z"/>
	<path fill-rule="evenodd" clip-rule="evenodd" d="M147.375,77.909c-0.211-0.285-0.449-0.607-0.684-0.916
		c1.266-0.199,2.133-1.092,2.133-2.33c0-1.711-1.189-2.355-3.038-2.355c-0.966,0-1.747,0.013-2.403,0.05v8.366h1.609v-3.459h0.063
		l2.332,3.459h1.996L147.375,77.909z M147.139,74.823c0,0.781-0.596,1.277-1.563,1.277c-0.247,0-0.47-0.012-0.583-0.025v-2.416
		c0.162-0.025,0.398-0.037,0.635-0.037C146.641,73.622,147.139,74.018,147.139,74.823z"/>
	<path fill-rule="evenodd" clip-rule="evenodd" d="M13.05,72.359h-1.822l-2.925,8.366h1.623l0.583-1.709h3.16l0.582,1.709h1.785
		L13.05,72.359z M10.918,77.739l0.756-2.133c0.161-0.482,0.298-0.967,0.397-1.4h0.012c0.1,0.471,0.223,0.881,0.385,1.338
		l0.779,2.195H10.918z"/>
	<path fill-rule="evenodd" clip-rule="evenodd" d="M79.031,72.359h-1.822l-2.925,8.366h1.623l0.583-1.709h3.16l0.582,1.709h1.785
		L79.031,72.359z M76.899,77.739l0.756-2.133c0.161-0.482,0.298-0.967,0.397-1.4h0.012c0.1,0.471,0.223,0.881,0.385,1.338
		l0.779,2.195H76.899z"/>
	<path d="M23.959,72.359h-1.561v2.603c0,1.029,0.023,2.516,0.086,3.359c-0.311-0.633-0.645-1.326-1.029-1.971l-2.33-3.991H17.03
		v8.366h1.562v-2.986c0-1.005-0.023-2.318-0.074-3.037c0.248,0.545,0.532,1.164,0.906,1.797l2.453,4.227h2.082V72.359z"/>
	<path d="M129.065,72.359h-1.561v2.603c0,1.029,0.023,2.516,0.086,3.359c-0.311-0.633-0.645-1.326-1.029-1.971l-2.33-3.991h-2.095
		v8.366h1.562v-2.986c0-1.005-0.023-2.318-0.074-3.037c0.248,0.545,0.532,1.164,0.906,1.797l2.453,4.227h2.082V72.359z"/>
	<path d="M31.249,79.026c-0.436,0.199-1.117,0.346-1.625,0.346c-1.686,0-2.441-1.016-2.441-2.838c0-1.623,0.768-2.801,2.33-2.801
		c0.57,0,1.141,0.088,1.686,0.248l0.174-1.463c-0.545-0.148-1.178-0.223-1.771-0.223c-2.803,0-4.191,1.859-4.191,4.512
		c0,2.082,0.943,4.029,3.869,4.029c0.779,0,1.535-0.15,2.156-0.373L31.249,79.026z"/>
	<path d="M95.492,79.026c-0.436,0.199-1.117,0.346-1.625,0.346c-1.686,0-2.441-1.016-2.441-2.838c0-1.623,0.768-2.801,2.33-2.801
		c0.57,0,1.141,0.088,1.686,0.248l0.174-1.463c-0.545-0.148-1.178-0.223-1.771-0.223c-2.803,0-4.191,1.859-4.191,4.512
		c0,2.082,0.943,4.029,3.869,4.029c0.779,0,1.535-0.15,2.156-0.373L95.492,79.026z"/>
	<path d="M114.145,79.026c-0.436,0.199-1.117,0.346-1.625,0.346c-1.686,0-2.441-1.016-2.441-2.838c0-1.623,0.768-2.801,2.33-2.801
		c0.57,0,1.141,0.088,1.686,0.248l0.174-1.463c-0.545-0.148-1.178-0.223-1.771-0.223c-2.803,0-4.191,1.859-4.191,4.512
		c0,2.082,0.943,4.029,3.869,4.029c0.779,0,1.535-0.15,2.156-0.373L114.145,79.026z"/>
	<polygon fill="#006BB6" points="121.322,84.972 120.621,84.972 120.056,84.972 120.056,91.543 121.322,91.543 	"/>
	<polygon fill="#006BB6" points="135.014,84.972 134.313,84.972 133.747,84.972 133.747,91.543 135.014,91.543 	"/>
	<path fill="#006BB6" d="M149.2,84.972h-1.227v2.045c0,0.808,0.018,1.977,0.068,2.637c-0.243-0.496-0.508-1.041-0.808-1.547
		l-1.831-3.135h-1.647v6.571h1.227v-2.346c0-0.789-0.019-1.821-0.056-2.385c0.192,0.429,0.418,0.915,0.709,1.411l1.928,3.32h1.637
		V84.972z"/>
	<polygon fill="#006BB6" points="81.512,84.972 76.838,84.972 76.838,86.053 78.543,86.053 78.543,91.543 79.809,91.543 
		79.809,86.053 81.512,86.053 	"/>
	<polygon fill="#006BB6" points="132.747,84.972 128.073,84.972 128.073,86.053 129.778,86.053 129.778,91.543 131.044,91.543 
		131.044,86.053 132.747,86.053 	"/>
	<polygon fill="#006BB6" points="39.467,84.972 38.202,84.972 38.202,87.6 35.416,87.6 35.416,84.972 34.15,84.972 34.15,91.543 
		35.416,91.543 35.416,88.691 38.202,88.691 38.202,91.543 39.467,91.543 	"/>
	<polygon fill="#006BB6" points="64.973,84.972 63.708,84.972 63.708,87.6 60.922,87.6 60.922,84.972 59.656,84.972 59.656,91.543 
		60.922,91.543 60.922,88.691 63.708,88.691 63.708,91.543 64.973,91.543 	"/>
	<polygon fill="#006BB6" points="44.865,90.463 42.558,90.463 42.558,88.682 44.748,88.682 44.748,87.65 42.558,87.65 
		42.558,86.034 44.865,86.034 44.865,84.972 41.291,84.972 41.291,91.543 44.865,91.543 	"/>
	<polygon fill="#006BB6" points="77.123,90.434 74.992,90.434 74.992,84.972 73.726,84.972 73.726,91.543 77.123,91.543 	"/>
	<path fill-rule="evenodd" clip-rule="evenodd" fill="#006BB6" d="M112.907,88.166c0-2.25-1.236-3.301-2.988-3.301
		c-1.763,0-3.212,1.306-3.212,3.475c0,2.037,0.983,3.311,2.987,3.311C111.477,91.65,112.907,90.338,112.907,88.166z M111.554,88.264
		c0,1.576-0.914,2.238-1.771,2.238c-1.178,0-1.723-0.906-1.723-2.299c0-1.479,0.836-2.199,1.742-2.199
		C110.931,86.004,111.554,86.803,111.554,88.264z"/>
	<path fill-rule="evenodd" clip-rule="evenodd" fill="#006BB6" d="M142.483,88.166c0-2.25-1.236-3.301-2.988-3.301
		c-1.763,0-3.212,1.306-3.212,3.475c0,2.037,0.983,3.311,2.987,3.311C141.053,91.65,142.483,90.338,142.483,88.166z M141.13,88.264
		c0,1.576-0.914,2.238-1.771,2.238c-1.178,0-1.723-0.906-1.723-2.299c0-1.479,0.836-2.199,1.742-2.199
		C140.507,86.004,141.13,86.803,141.13,88.264z"/>
	<path fill-rule="evenodd" clip-rule="evenodd" fill="#006BB6" d="M126.011,84.972h-1.432l-2.297,6.571h1.275l0.457-1.342h2.483
		l0.457,1.342h1.402L126.011,84.972z M124.337,89.197l0.593-1.674c0.128-0.38,0.233-0.76,0.312-1.1h0.011
		c0.077,0.369,0.175,0.691,0.302,1.051l0.613,1.723H124.337z"/>
	<path fill="#006BB6" d="M105.714,89.51c0-2.055-2.766-1.617-2.766-2.795c0-0.467,0.371-0.798,1.101-0.798
		c0.399,0,0.808,0.068,1.178,0.175l0.068-1.109c-0.39-0.067-0.817-0.117-1.187-0.117c-1.577,0-2.503,0.81-2.503,1.977
		c0,2.161,2.755,1.586,2.755,2.842c0,0.605-0.497,0.867-1.139,0.867c-0.477,0-1.003-0.107-1.372-0.234l-0.079,1.18
		c0.41,0.107,0.876,0.154,1.344,0.154C104.73,91.65,105.714,90.746,105.714,89.51z"/>
</g>
</svg>
