<?xml version="1.0" encoding="UTF-8" standalone="no"?>
<!-- Generator: Adobe Illustrator 15.0.0, SVG Export Plug-In . SVG Version: 6.00 Build 0)  -->

<svg
   xmlns:dc="http://purl.org/dc/elements/1.1/"
   xmlns:cc="http://creativecommons.org/ns#"
   xmlns:rdf="http://www.w3.org/1999/02/22-rdf-syntax-ns#"
   xmlns:svg="http://www.w3.org/2000/svg"
   xmlns="http://www.w3.org/2000/svg"
   xmlns:xlink="http://www.w3.org/1999/xlink"
   xmlns:sodipodi="http://sodipodi.sourceforge.net/DTD/sodipodi-0.dtd"
   xmlns:inkscape="http://www.inkscape.org/namespaces/inkscape"
   version="1.1"
   id="Ebene_1"
   x="0px"
   y="0px"
   width="227.8"
   height="59.511002"
   viewBox="0 0 227.8 59.511002"
   enable-background="new 0 0 251.667 84"
   xml:space="preserve"
   inkscape:version="0.91 r13725"
   sodipodi:docname="matrad_hat.svg"><metadata
   id="metadata43"><rdf:RDF><cc:Work
       rdf:about=""><dc:format>image/svg+xml</dc:format><dc:type
         rdf:resource="http://purl.org/dc/dcmitype/StillImage" /><dc:title></dc:title></cc:Work></rdf:RDF></metadata><defs
   id="defs41" /><sodipodi:namedview
   pagecolor="#ffffff"
   bordercolor="#666666"
   borderopacity="1"
   objecttolerance="10"
   gridtolerance="10"
   guidetolerance="10"
   inkscape:pageopacity="0"
   inkscape:pageshadow="2"
   inkscape:window-width="640"
   inkscape:window-height="480"
   id="namedview39"
   showgrid="false"
   fit-margin-top="0"
   fit-margin-left="0"
   fit-margin-right="0"
   fit-margin-bottom="0"
   inkscape:zoom="1.3708591"
   inkscape:cx="110.5435"
   inkscape:cy="25.427"
   inkscape:window-x="0"
   inkscape:window-y="0"
   inkscape:window-maximized="0"
   inkscape:current-layer="Ebene_1" />
<g
   id="g3"
   transform="translate(-15.29,-7.916)">
	<defs
   id="defs5">
		<rect
   id="SVGID_1_"
   width="251.66701"
   height="84"
   x="0"
   y="0" />
	</defs>
	<clipPath
   id="SVGID_2_">
		<use
   xlink:href="#SVGID_1_"
   overflow="visible"
   id="use9"
   style="overflow:visible"
   x="0"
   y="0"
   width="100%"
   height="100%" />
	</clipPath>
	<path
   clip-path="url(#SVGID_2_)"
   d="m 15.927,39.143 0,-1.33 11.061,0 0,3.22 c 1.75,-1.61 4.9,-4.06 9.941,-4.06 2.17,0 4.48,0.49 6.021,1.68 1.33,1.05 1.75,2.1 2.03,2.73 1.89,-1.96 4.76,-4.41 10.291,-4.41 3.99,0 5.95,1.54 6.721,2.52 1.33,1.75 1.61,3.85 1.61,5.741 l 0,20.021 5.04,0 0,1.33 -15.611,0 0,-1.33 4.83,0 0,-19.461 c 0,-2.451 0,-3.501 -0.35,-4.411 -0.7,-1.75 -2.31,-2.52 -4.41,-2.52 -2.941,0 -4.761,1.61 -5.601,2.66 -1.89,2.381 -1.96,4.9 -2.03,9.101 l 0,14.632 4.55,0 0,1.33 -15.541,0 0,-1.33 4.97,0 0,-18.902 c 0,-2.38 0,-4.131 -0.7,-5.321 -0.49,-0.84 -1.75,-2.1 -3.99,-2.1 -2.38,0 -4.48,1.19 -5.671,2.731 -1.68,2.101 -1.89,4.83 -2.03,8.96 l 0,14.632 4.83,0 0,1.33 -15.961,0 0,-1.33 5.391,0 0,-26.113 -5.391,0 z"
   id="path11"
   inkscape:connector-curvature="0"
   style="fill:#1e2f55" />
	<path
   clip-path="url(#SVGID_2_)"
   d="m 95.799,61.195 c 0.069,2.8 0.139,4.13 2.029,4.13 1.051,0 1.541,-0.56 2.101,-1.12 l 0.63,0.842 c -1.4,1.47 -2.941,2.17 -4.971,2.17 -4.9,0 -5.39,-4.201 -5.6,-6.091 -1.96,4.199 -5.181,6.091 -9.241,6.091 -5.181,0 -7.631,-3.15 -7.631,-6.791 0,-1.82 0.49,-4.411 3.43,-6.651 2.381,-1.89 6.441,-3.29 13.582,-3.29 l 0,-7.071 c 0,-1.609 0,-5.321 -5.111,-5.321 -3.15,0 -5.95,1.961 -5.95,3.011 0,0.28 0.35,0.84 0.7,1.26 0.56,0.63 0.77,1.61 0.77,2.101 0,1.26 -0.91,2.939 -2.731,2.939 -1.96,0 -2.66,-1.89 -2.66,-3.22 0,-3.64 4.481,-7.421 10.851,-7.421 3.221,0 6.441,1.051 8.121,2.941 1.75,1.96 1.681,4.34 1.681,6.861 l 0,14.63 z m -5.601,-9.52 c -1.96,0 -4.48,0.069 -7.071,1.26 -3.57,1.61 -4.341,4.131 -4.341,6.23 0,3.5 2.381,4.971 4.691,4.971 1.96,0 3.361,-0.91 3.991,-1.54 2.52,-2.17 2.59,-4.97 2.73,-8.4 l 0,-2.521 z"
   id="path13"
   inkscape:connector-curvature="0"
   style="fill:#1e2f55" />
	<path
   clip-path="url(#SVGID_2_)"
   d="m 121.208,39.143 -7.981,0 0,20.722 c -0.07,1.961 -0.07,5.181 3.781,5.181 3.57,0 4.27,-3.01 4.41,-3.99 l 1.33,0 c -0.49,3.501 -2.66,6.16 -7.631,6.16 -4.2,0 -6.3,-1.96 -7.07,-4.27 -0.49,-1.331 -0.49,-2.801 -0.49,-6.301 l 0,-17.502 -4.831,0 0,-0.91 c 3.92,-1.68 8.051,-6.651 9.731,-12.041 l 0.77,0 0,11.621 7.981,0 0,1.33 z"
   id="path15"
   inkscape:connector-curvature="0"
   style="fill:#1e2f55" />
	<path
   clip-path="url(#SVGID_2_)"
   d="m 145.147,65.256 0,1.33 -20.372,0 0,-1.33 6.721,0 0,-46.765 -6.721,0 0,-1.33 19.392,0 c 5.39,0 10.641,0 14.561,3.08 2.03,1.54 3.991,4.201 3.991,8.261 0,3.081 -1.191,5.88 -3.851,8.121 -4.061,3.36 -9.661,3.78 -11.552,3.921 3.5,0.42 6.932,1.54 9.521,3.92 3.29,3.01 4.2,6.65 4.2,10.921 0,5.25 0,6.301 0.279,7.211 0.561,1.891 2.031,2.73 3.501,2.73 1.19,0 2.101,-0.49 2.94,-0.98 l 0.49,1.261 c -0.98,0.63 -2.38,1.399 -5.11,1.399 -3.431,0 -5.531,-1.47 -6.651,-2.59 -3.149,-2.94 -3.29,-7.071 -3.359,-10.921 l 0,-1.54 c 0,-3.221 0,-8.471 -4.972,-10.152 -2.449,-0.839 -4.689,-0.839 -9.66,-0.7 l 0,24.153 6.652,0 z m -6.65,-46.625 0,20.862 3.01,0 c 3.011,0 7.211,0 9.871,-1.68 2.73,-1.82 3.641,-5.321 3.641,-8.611 0,-2.24 -0.56,-5.39 -1.96,-7.211 -2.591,-3.43 -7.491,-3.36 -11.552,-3.36 l -3.01,0 z"
   id="path17"
   inkscape:connector-curvature="0"
   style="fill:#b18510" />
	<path
   clip-path="url(#SVGID_2_)"
   d="m 194.988,61.195 c 0.068,2.8 0.139,4.13 2.028,4.13 1.052,0 1.541,-0.56 2.102,-1.12 l 0.63,0.842 c -1.4,1.47 -2.941,2.17 -4.971,2.17 -4.9,0 -5.391,-4.201 -5.601,-6.091 -1.96,4.199 -5.181,6.091 -9.241,6.091 -5.181,0 -7.631,-3.15 -7.631,-6.791 0,-1.82 0.49,-4.411 3.431,-6.651 2.381,-1.89 6.44,-3.29 13.581,-3.29 l 0,-7.071 c 0,-1.609 0,-5.321 -5.11,-5.321 -3.15,0 -5.95,1.961 -5.95,3.011 0,0.28 0.35,0.84 0.7,1.26 0.56,0.63 0.77,1.61 0.77,2.101 0,1.26 -0.91,2.939 -2.73,2.939 -1.96,0 -2.66,-1.89 -2.66,-3.22 0,-3.64 4.48,-7.421 10.851,-7.421 3.222,0 6.441,1.051 8.121,2.941 1.75,1.96 1.682,4.34 1.682,6.861 l 0,14.63 z m -5.601,-9.52 c -1.96,0 -4.479,0.069 -7.071,1.26 -3.569,1.61 -4.341,4.131 -4.341,6.23 0,3.5 2.381,4.971 4.691,4.971 1.96,0 3.361,-0.91 3.991,-1.54 2.52,-2.17 2.59,-4.97 2.729,-8.4 l 0,-2.521 z"
   id="path19"
   inkscape:connector-curvature="0"
   style="fill:#b18510" />
	<path
   clip-path="url(#SVGID_2_)"
   d="m 220.046,17.16 11.552,0 0,48.096 5.109,0 0,1.33 -10.851,0 0,-6.16 c -1.12,2.521 -3.15,7.001 -9.03,7.001 -5.741,0 -12.392,-4.972 -12.392,-15.122 0,-10.151 6.44,-15.332 12.252,-15.332 5.6,0 7.979,4.27 9.17,6.51 l 0,-24.992 -5.811,0 0,-1.331 z m -8.4,43.125 c 0.14,1.12 0.84,5.671 5.46,5.671 3.431,0 8.541,-3.081 8.541,-13.582 0,-2.87 -0.141,-6.37 -2.03,-9.59 -1.47,-2.381 -3.78,-4.271 -6.58,-4.271 -4.551,0 -5.181,4.2 -5.321,5.391 -0.279,2.029 -0.35,6.65 -0.35,8.12 -0.001,2.52 -0.001,6.441 0.28,8.261"
   id="path21"
   inkscape:connector-curvature="0"
   style="fill:#b18510" />
	<path
   clip-path="url(#SVGID_2_)"
   d="m 15.29,38.37 0,-1.33 11.061,0 0,3.22 c 1.75,-1.61 4.9,-4.06 9.941,-4.06 2.17,0 4.48,0.49 6.021,1.68 1.33,1.05 1.75,2.1 2.03,2.73 1.89,-1.96 4.76,-4.41 10.291,-4.41 3.99,0 5.95,1.54 6.721,2.52 1.33,1.75 1.61,3.85 1.61,5.741 l 0,20.022 5.04,0 0,1.33 -15.611,0 0,-1.33 4.83,0 0,-19.462 c 0,-2.452 0,-3.501 -0.35,-4.412 -0.7,-1.75 -2.31,-2.52 -4.41,-2.52 -2.941,0 -4.761,1.61 -5.601,2.66 -1.89,2.381 -1.96,4.901 -2.03,9.101 l 0,14.633 4.55,0 0,1.33 -15.541,0 0,-1.33 4.97,0 0,-18.902 c 0,-2.38 0,-4.131 -0.7,-5.321 -0.49,-0.84 -1.75,-2.1 -3.99,-2.1 -2.38,0 -4.48,1.19 -5.671,2.731 -1.68,2.1 -1.89,4.83 -2.03,8.959 l 0,14.633 4.83,0 0,1.33 -15.961,0 0,-1.33 5.391,0 0,-26.113 -5.391,0 z"
   id="path23"
   inkscape:connector-curvature="0"
   style="fill:#234e9d" />
	<path
   clip-path="url(#SVGID_2_)"
   d="m 95.162,60.422 c 0.069,2.801 0.139,4.13 2.029,4.13 1.051,0 1.541,-0.56 2.101,-1.119 l 0.63,0.841 c -1.4,1.47 -2.941,2.17 -4.971,2.17 -4.9,0 -5.39,-4.201 -5.6,-6.091 -1.96,4.199 -5.181,6.091 -9.241,6.091 -5.181,0 -7.631,-3.15 -7.631,-6.791 0,-1.82 0.49,-4.411 3.43,-6.651 2.381,-1.89 6.441,-3.29 13.582,-3.29 l 0,-7.072 c 0,-1.61 0,-5.321 -5.111,-5.321 -3.15,0 -5.95,1.961 -5.95,3.011 0,0.28 0.35,0.84 0.7,1.26 0.56,0.63 0.77,1.61 0.77,2.1 0,1.26 -0.91,2.939 -2.731,2.939 -1.96,0 -2.66,-1.89 -2.66,-3.22 0,-3.64 4.481,-7.421 10.851,-7.421 3.221,0 6.441,1.051 8.121,2.941 1.75,1.96 1.681,4.34 1.681,6.861 l 0,14.632 z m -5.601,-9.521 c -1.96,0 -4.48,0.07 -7.071,1.26 -3.57,1.61 -4.341,4.131 -4.341,6.231 0,3.5 2.381,4.97 4.691,4.97 1.96,0 3.361,-0.91 3.991,-1.54 2.52,-2.17 2.59,-4.97 2.73,-8.4 l 0,-2.521 z"
   id="path25"
   inkscape:connector-curvature="0"
   style="fill:#234e9d" />
	<path
   clip-path="url(#SVGID_2_)"
   d="m 120.57,38.37 -7.981,0 0,20.722 c -0.07,1.961 -0.07,5.182 3.781,5.182 3.57,0 4.27,-3.011 4.41,-3.991 l 1.33,0 c -0.49,3.501 -2.66,6.161 -7.631,6.161 -4.2,0 -6.3,-1.96 -7.07,-4.271 -0.49,-1.331 -0.49,-2.801 -0.49,-6.301 l 0,-17.502 -4.831,0 0,-0.91 c 3.92,-1.68 8.051,-6.651 9.731,-12.041 l 0.77,0 0,11.621 7.981,0 0,1.33 z"
   id="path27"
   inkscape:connector-curvature="0"
   style="fill:#234e9d" />
	<path
   clip-path="url(#SVGID_2_)"
   d="m 144.511,64.482 0,1.33 -20.372,0 0,-1.33 6.721,0 0,-46.764 -6.721,0 0,-1.33 19.392,0 c 5.391,0 10.642,0 14.562,3.08 2.029,1.54 3.99,4.201 3.99,8.261 0,3.081 -1.19,5.88 -3.851,8.121 -4.06,3.36 -9.661,3.78 -11.551,3.921 3.5,0.42 6.931,1.54 9.521,3.919 3.29,3.011 4.2,6.65 4.2,10.921 0,5.25 0,6.302 0.28,7.212 0.56,1.89 2.031,2.729 3.501,2.729 1.189,0 2.1,-0.49 2.939,-0.979 l 0.49,1.26 c -0.979,0.63 -2.38,1.399 -5.109,1.399 -3.432,0 -5.531,-1.47 -6.651,-2.59 -3.15,-2.939 -3.29,-7.07 -3.36,-10.921 l 0,-1.54 c 0,-3.221 0,-8.471 -4.971,-10.152 -2.45,-0.839 -4.69,-0.839 -9.661,-0.7 l 0,24.153 6.651,0 z m -6.652,-46.624 0,20.862 3.01,0 c 3.012,0 7.211,0 9.871,-1.68 2.731,-1.82 3.642,-5.321 3.642,-8.611 0,-2.24 -0.561,-5.39 -1.96,-7.211 -2.592,-3.43 -7.491,-3.36 -11.553,-3.36 l -3.01,0 z"
   id="path29"
   inkscape:connector-curvature="0"
   style="fill:#fdc300" />
	<path
   clip-path="url(#SVGID_2_)"
   d="m 194.351,60.422 c 0.069,2.801 0.139,4.13 2.029,4.13 1.051,0 1.541,-0.56 2.101,-1.119 l 0.63,0.841 c -1.399,1.47 -2.94,2.17 -4.971,2.17 -4.9,0 -5.39,-4.201 -5.6,-6.091 -1.96,4.199 -5.182,6.091 -9.241,6.091 -5.181,0 -7.631,-3.15 -7.631,-6.791 0,-1.82 0.489,-4.411 3.43,-6.651 2.381,-1.89 6.441,-3.29 13.582,-3.29 l 0,-7.072 c 0,-1.61 0,-5.321 -5.111,-5.321 -3.149,0 -5.949,1.961 -5.949,3.011 0,0.28 0.35,0.84 0.699,1.26 0.561,0.63 0.771,1.61 0.771,2.1 0,1.26 -0.91,2.939 -2.731,2.939 -1.96,0 -2.66,-1.89 -2.66,-3.22 0,-3.64 4.481,-7.421 10.852,-7.421 3.221,0 6.44,1.051 8.121,2.941 1.75,1.96 1.681,4.34 1.681,6.861 l 0,14.632 z m -5.601,-9.521 c -1.96,0 -4.48,0.07 -7.071,1.26 -3.57,1.61 -4.341,4.131 -4.341,6.231 0,3.5 2.381,4.97 4.69,4.97 1.96,0 3.361,-0.91 3.991,-1.54 2.521,-2.17 2.59,-4.97 2.73,-8.4 l 0,-2.521 z"
   id="path31"
   inkscape:connector-curvature="0"
   style="fill:#fdc300" />
	<path
   clip-path="url(#SVGID_2_)"
   d="m 219.409,16.387 11.551,0 0,48.096 5.11,0 0,1.33 -10.852,0 0,-6.161 c -1.12,2.521 -3.149,7.001 -9.029,7.001 -5.741,0 -12.393,-4.972 -12.393,-15.122 0,-10.151 6.441,-15.331 12.252,-15.331 5.601,0 7.98,4.27 9.17,6.51 l 0,-24.992 -5.81,0 0,-1.331 z m -8.401,43.125 c 0.141,1.12 0.84,5.671 5.46,5.671 3.432,0 8.541,-3.08 8.541,-13.581 0,-2.87 -0.14,-6.37 -2.03,-9.59 -1.47,-2.381 -3.779,-4.271 -6.579,-4.271 -4.552,0 -5.182,4.2 -5.321,5.391 -0.28,2.029 -0.351,6.65 -0.351,8.12 0,2.519 0,6.44 0.28,8.26"
   id="path33"
   inkscape:connector-curvature="0"
   style="fill:#fdc300" />
	<path
   clip-path="url(#SVGID_2_)"
   d="m 231.814,14.224 c -3.233,-1.551 -7.24,-1.291 -7.24,-1.291 l -1.706,3.56 c 0,0 4.094,0.213 7.123,1.665 3.026,1.45 5.76,4.508 5.76,4.508 l 1.729,-3.611 c 0,0 -2.431,-3.281 -5.666,-4.831"
   id="path35"
   inkscape:connector-curvature="0"
   style="fill:#234e9d" />
	<path
   clip-path="url(#SVGID_2_)"
   d="m 240.722,28.196 0.757,-8.207 1.611,-0.075 -0.941,-1.323 0.162,-0.336 c 0,0 1.238,-1.656 -1.272,-1.682 -0.13,0.006 -0.214,0.038 -0.265,0.083 l -6.208,-8.74 -14.152,1.036 3.283,3.916 0.296,-0.62 c 0,0 4.466,-0.288 8.072,1.441 3.607,1.728 6.317,5.388 6.317,5.388 l -0.518,1.08 2.911,-0.135 -0.646,8.172 c -0.215,0.102 -0.38,0.302 -0.401,0.557 -0.032,0.378 0.249,0.713 0.628,0.747 0.379,0.033 0.714,-0.248 0.747,-0.626 0.026,-0.292 -0.134,-0.553 -0.381,-0.676 m 1.177,-10.519 c -0.022,0.042 -0.077,0.162 -0.162,0.337 l -0.496,-0.699 c 0.325,-0.045 0.864,-0.067 0.658,0.362 m -1.173,1.865 c -0.301,-0.143 -0.427,-0.5 -0.283,-0.802 0.144,-0.298 0.503,-0.425 0.801,-0.28 0.3,0.143 0.424,0.502 0.282,0.801 -0.144,0.299 -0.501,0.426 -0.8,0.281"
   id="path37"
   inkscape:connector-curvature="0"
   style="fill:#234e9d" />
</g>
</svg>