<?xml version="1.0" encoding="UTF-8" standalone="no"?>
<!-- Created with Inkscape (http://www.inkscape.org/) -->

<svg
   xmlns:dc="http://purl.org/dc/elements/1.1/"
   xmlns:cc="http://creativecommons.org/ns#"
   xmlns:rdf="http://www.w3.org/1999/02/22-rdf-syntax-ns#"
   xmlns:svg="http://www.w3.org/2000/svg"
   xmlns="http://www.w3.org/2000/svg"
   xmlns:sodipodi="http://sodipodi.sourceforge.net/DTD/sodipodi-0.dtd"
   xmlns:inkscape="http://www.inkscape.org/namespaces/inkscape"
   width="36.125069mm"
   height="36.323101mm"
   viewBox="0 0 128.00221 128.7039"
   id="svg3390"
   version="1.1"
   inkscape:version="0.91 r13725"
   sodipodi:docname="setupIcon.svg">
  <defs
     id="defs3392" />
  <sodipodi:namedview
     id="base"
     pagecolor="#ffffff"
     bordercolor="#666666"
     borderopacity="1.0"
     inkscape:pageopacity="0.0"
     inkscape:pageshadow="2"
     inkscape:zoom="3.959798"
     inkscape:cx="72.811089"
     inkscape:cy="25.137708"
     inkscape:document-units="px"
     inkscape:current-layer="layer1"
     showgrid="false"
     fit-margin-top="0"
     fit-margin-left="0"
     fit-margin-right="0"
     fit-margin-bottom="0"
     inkscape:window-width="1280"
     inkscape:window-height="962"
     inkscape:window-x="-8"
     inkscape:window-y="-8"
     inkscape:window-maximized="1" />
  <metadata
     id="metadata3395">
    <rdf:RDF>
      <cc:Work
         rdf:about="">
        <dc:format>image/svg+xml</dc:format>
        <dc:type
           rdf:resource="http://purl.org/dc/dcmitype/StillImage" />
        <dc:title></dc:title>
      </cc:Work>
    </rdf:RDF>
  </metadata>
  <g
     inkscape:label="Ebene 1"
     inkscape:groupmode="layer"
     id="layer1"
     transform="translate(-305.7884,-184.65225)">
    <g
       id="g3780"
       transform="translate(305.78805,184.99915)">
      <g
         id="layer1-5"
         transform="translate(0,-924.36)">
        <path
           id="path3160-7"
           d="m 128.29,64.865 a 63.766,63.892 0 1 1 -127.53,0 63.766,63.892 0 1 1 127.53,0 z"
           style="fill:none;stroke:#000000;stroke-width:1.99469995;stroke-linecap:round;stroke-linejoin:round"
           inkscape:connector-curvature="0"
           transform="matrix(0.98823,0,0,0.98628,0.23592,924.39)" />
      </g>
      <path
         id="path3935-9"
         style="color:#000000;fill:#4d4d4d;stroke:#5b5b5b;stroke-width:0.75709999;stroke-linecap:round;stroke-linejoin:round"
         inkscape:connector-curvature="0"
         d="M 92.315,23.757 C 84.521,20.912 81.583,22.668 73.765,30.058 68.534,35.001 69.273,42.751 71.48,48.555 L 26.717,90.862 c -2.4307,2.2974 -2.5382,6.1091 -0.24084,8.5398 l 1.8,1.9044 c 2.2974,2.4308 6.1091,2.5382 8.5398,0.24085 l 44.788,-42.334 c 5.4982,2.3328 12.905,3.2234 18.157,-1.6533 7.8052,-7.2483 10.247,-9.6848 7.8462,-17.626 -11.056,10.449 -6.9846,8.7147 -15.823,7.2966 -6.9266,-1.1115 -6.9266,-1.1115 -7.6459,-8.0896 -0.91781,-8.9039 -2.8791,-4.9368 8.1767,-15.386 z M 34.974,93.268 c 1.0557,1.117 1.006,2.8782 -0.11094,3.9339 -1.117,1.0557 -2.8782,1.006 -3.9339,-0.11093 -1.0557,-1.117 -1.006,-2.8782 0.11095,-3.9339 1.1169,-1.0557 2.8782,-1.006 3.9339,0.11096 z" />
      <path
         id="path3974"
         style="color:#000000;fill:#4d4d4d;stroke:#5b5b5b;stroke-width:0.68598002;stroke-linecap:round;stroke-linejoin:round"
         inkscape:connector-curvature="0"
         d="m 23.193,26.579 5.1285,6.4242 2.0514,0.75578 36.008,36.008 -2.9152,2.9152 1.2416,1.2416 3.401,-0.91774 26.182,30.501 4.6427,0.32392 3.401,-0.91774 0.91774,-3.401 -0.32392,-4.6427 -30.513,-26.179 0.917,-3.401 -1.241,-1.241 -2.915,2.915 -36.008,-36.008 -0.756,-2.051 -6.424,-5.129 -2.807,2.807 z" />
    </g>
  </g>
</svg>
